<svg width="586" height="446" viewBox="0 0 586 446" fill="none" xmlns="http://www.w3.org/2000/svg">
<path d="M495.562 37.0615C458.062 19.874 418.218 7.37403 376.343 0.0302837C375.562 0.0302837 374.781 0.0302812 374.468 0.967781C369.312 10.1865 363.531 22.0615 359.624 31.4365C314.312 24.7178 269.781 24.7178 225.718 31.4365C221.656 21.749 215.874 10.0303 210.093 0.967781C209.624 0.342781 208.999 -0.125966 208.218 0.0302837C172.281 7.21778 126.343 20.3428 89.4682 37.0615C89.1557 37.0615 88.8432 37.374 88.687 37.6865C12.1245 151.749 -8.18802 261.124 2.74948 370.499C2.74948 370.968 3.06198 371.437 3.53073 371.749C46.937 403.999 88.687 424.655 129.937 438.468C130.562 438.624 131.187 438.468 131.499 437.999C142.437 423.249 152.062 407.593 160.218 391.155C160.687 390.374 160.374 389.437 159.593 389.124C144.312 383.499 129.78 376.624 115.562 368.624C114.781 368.155 114.781 367.062 115.406 366.593C118.531 364.343 121.656 362.093 124.624 359.687C125.093 359.218 125.718 359.218 126.187 359.374C220.656 403.687 323.218 403.687 416.624 359.374C417.093 359.218 417.718 359.218 418.187 359.687C421.156 361.937 424.281 364.343 427.406 366.593C428.187 367.218 428.187 368.155 427.249 368.624C413.031 376.78 398.499 383.499 383.218 389.124C382.437 389.437 382.124 390.374 382.593 391.155C390.906 407.437 400.531 423.093 411.312 437.999C411.781 438.468 412.406 438.624 413.031 438.468C454.437 424.655 496.187 403.999 539.437 371.749C539.906 371.437 540.218 370.968 540.218 370.499C553.562 245.624 521.531 136.718 497.062 37.6865C496.906 37.374 496.749 37.0615 495.562 37.0615ZM197.062 304.218C168.062 304.218 143.593 277.437 143.593 244.218C143.593 211.155 167.593 184.374 197.062 184.374C226.687 184.374 250.687 211.312 250.531 244.218C250.531 277.437 226.531 304.218 197.062 304.218ZM388.374 304.218C359.218 304.218 334.906 277.437 334.906 244.218C334.906 211.155 358.749 184.374 388.374 184.374C417.843 184.374 442.156 211.312 441.843 244.218C441.843 277.437 417.843 304.218 388.374 304.218Z" fill="url(#paint0_linear_515_259)"/>
<defs>
<linearGradient id="paint0_linear_515_259" x1="664.616" y1="220.42" x2="-96.3028" y2="220.42" gradientUnits="userSpaceOnUse">
<stop stop-color="#FF5605"/>
<stop offset="0.456731" stop-color="#FF7704"/>
<stop offset="1" stop-color="#FFA103"/>
</linearGradient>
</defs>
</svg>
